<svg width="400" height="61" viewBox="0 0 400 61" fill="none" xmlns="http://www.w3.org/2000/svg">
<path d="M47.9785 23.0299C48.079 25.7941 47.8277 28.2064 47.2246 30.2669C46.6215 32.2772 45.7923 34.0111 44.7369 35.4685C43.6815 36.8757 42.4502 38.0316 41.043 38.9362C39.6861 39.8408 38.2789 40.5444 36.8215 41.047C33.404 42.3034 29.5091 42.7809 25.1368 42.4793C25.5388 44.3388 25.7398 45.9722 25.7398 47.3794C25.7398 48.7865 25.5891 50.0178 25.2875 51.0732C24.986 52.1286 24.5839 53.0332 24.0814 53.7871C23.5788 54.4907 23.026 55.0938 22.4229 55.5963C21.0157 56.7522 19.2818 57.4558 17.2213 57.7071C14.2562 58.0087 11.7936 57.6317 9.83357 56.5763C7.87356 55.521 6.3156 54.2897 5.15969 52.8825C3.80276 51.224 2.74737 49.3142 1.99352 47.1532C0.837613 43.2332 0.184275 39.489 0.0335045 35.9208C-0.067009 32.3526 0.0586329 29.1864 0.41043 26.4223C0.812484 23.2561 1.44069 20.2658 2.29506 17.4514C2.9484 15.4914 3.77763 13.8078 4.78277 12.4006C5.83816 10.9432 6.94381 9.71191 8.09972 8.70677C9.30588 7.65138 10.5623 6.82214 11.869 6.21906C13.1756 5.56572 14.4572 5.03803 15.7136 4.63597C18.6788 3.73135 21.8198 3.37956 25.1368 3.58058C27.9511 3.68109 30.4137 4.03289 32.5245 4.63597C34.6855 5.23905 36.545 6.01803 38.103 6.97291C39.7112 7.87753 41.0682 8.9078 42.1738 10.0637C43.2795 11.2196 44.2092 12.4006 44.9631 13.6068C46.6215 16.3709 47.6267 19.512 47.9785 23.0299ZM24.986 21.5222C24.1316 21.5222 23.3778 21.8489 22.7244 22.5023C22.1214 23.1556 21.8701 23.8843 21.9706 24.6884C22.0711 25.7438 22.3726 26.4725 22.8752 26.8746C23.428 27.2766 24.1316 27.4777 24.986 27.4777C25.8404 27.4777 26.544 27.2264 27.0968 26.7238C27.6496 26.2213 27.926 25.5428 27.926 24.6884C27.926 23.8843 27.6747 23.1556 27.1722 22.5023C26.6696 21.8489 25.9409 21.5222 24.986 21.5222Z" fill="#FE621D"/>
<path d="M71.5238 50.3146C71.1718 47.1466 71.0758 44.0746 71.2358 41.0986C71.2998 39.8186 71.4278 38.5066 71.6198 37.1626C71.8438 35.7866 72.1478 34.4426 72.5318 33.1306C72.9158 31.7866 73.3958 30.5066 73.9718 29.2906C74.5798 28.0426 75.3158 26.9226 76.1797 25.9306C77.2998 24.6506 78.7078 23.6426 80.4038 22.9066C82.0998 22.1706 83.8758 21.7066 85.7318 21.5146C87.6198 21.3226 89.5078 21.4026 91.3958 21.7546C93.3158 22.0746 95.0438 22.6666 96.5798 23.5306C97.3478 24.0106 98.0678 24.5866 98.7398 25.2586C99.3158 25.8346 99.8758 26.5546 100.42 27.4186C100.996 28.2826 101.444 29.2906 101.764 30.4426C102.02 31.4666 102.148 32.6346 102.148 33.9466C102.18 35.2586 102.068 36.5706 101.812 37.8826C101.556 39.1626 101.156 40.3786 100.612 41.5306C100.068 42.6506 99.3798 43.5626 98.5478 44.2666C97.7798 44.9066 96.9958 45.4186 96.1958 45.8026C95.3958 46.1866 94.5958 46.4746 93.7958 46.6666C93.0278 46.8586 92.2758 46.9706 91.5398 47.0026C90.8358 47.0346 90.1638 47.0186 89.5238 46.9546C88.0198 46.8266 86.5798 46.4426 85.2038 45.8026C85.6518 48.2346 85.7638 50.3946 85.5398 52.2826C85.4438 53.0826 85.2678 53.8666 85.0118 54.6346C84.7558 55.4026 84.3878 56.0906 83.9078 56.6986C83.4278 57.3066 82.8038 57.7866 82.0358 58.1386C81.2998 58.5226 80.3878 58.7146 79.2998 58.7146C78.4358 58.7146 77.6678 58.5866 76.9958 58.3306C76.3238 58.1066 75.7158 57.8026 75.1718 57.4186C74.6598 57.0346 74.2118 56.5866 73.8278 56.0746C73.4438 55.5946 73.1078 55.0826 72.8198 54.5386C72.1798 53.2906 71.7478 51.8826 71.5238 50.3146ZM87.4598 33.5146C86.9158 33.5146 86.4358 33.7226 86.0198 34.1386C85.6358 34.5546 85.4758 35.0186 85.5398 35.5306C85.6038 36.2026 85.7958 36.6666 86.1158 36.9226C86.4678 37.1786 86.9158 37.3066 87.4598 37.3066C88.0038 37.3066 88.4518 37.1466 88.8038 36.8266C89.1558 36.5066 89.3318 36.0746 89.3318 35.5306C89.3318 35.0186 89.1718 34.5546 88.8518 34.1386C88.5318 33.7226 88.0678 33.5146 87.4598 33.5146ZM114.366 22.0426C116.062 21.8826 117.454 21.9786 118.542 22.3306C119.63 22.6506 120.478 23.0506 121.086 23.5306C121.726 24.0106 122.174 24.4906 122.43 24.9706C122.686 25.4186 122.83 25.6906 122.862 25.7866C122.862 25.7546 122.942 25.5306 123.102 25.1146C123.294 24.6666 123.598 24.1866 124.014 23.6746C124.43 23.1626 124.99 22.7146 125.694 22.3306C126.398 21.9146 127.278 21.7066 128.334 21.7066C129.23 21.7066 130.014 21.8826 130.686 22.2346C131.358 22.5866 131.95 23.0506 132.462 23.6266C132.974 24.2026 133.406 24.8586 133.758 25.5946C134.11 26.3306 134.398 27.0826 134.622 27.8506C135.166 29.6426 135.47 31.6746 135.534 33.9466C135.63 35.7706 135.598 37.3706 135.438 38.7466C135.278 40.0906 135.038 41.2586 134.718 42.2506C134.43 43.2106 134.078 44.0266 133.662 44.6986C133.246 45.3386 132.814 45.8506 132.366 46.2346C131.31 47.1626 130.078 47.5946 128.67 47.5306C127.806 47.5626 126.99 47.4186 126.222 47.0986C125.582 46.8426 124.958 46.4106 124.35 45.8026C123.742 45.1626 123.358 44.2346 123.198 43.0186C122.878 43.9786 122.302 44.7946 121.47 45.4666C120.766 46.0426 119.774 46.5386 118.494 46.9546C117.214 47.3706 115.518 47.4506 113.406 47.1946C111.678 47.0026 110.142 46.4906 108.798 45.6586C108.222 45.3066 107.646 44.8586 107.07 44.3146C106.526 43.7706 106.03 43.0986 105.582 42.2986C105.166 41.4986 104.83 40.5706 104.574 39.5146C104.318 38.4586 104.19 37.2426 104.19 35.8666C104.126 33.4666 104.43 31.2906 105.102 29.3386C105.39 28.5066 105.774 27.6906 106.254 26.8906C106.734 26.0586 107.342 25.3066 108.078 24.6346C108.814 23.9626 109.694 23.4026 110.718 22.9546C111.742 22.4746 112.958 22.1706 114.366 22.0426ZM120.75 33.3226C120.206 33.3226 119.726 33.5306 119.31 33.9466C118.926 34.3626 118.766 34.8266 118.83 35.3386C118.894 36.0106 119.086 36.4746 119.406 36.7306C119.758 36.9866 120.206 37.1146 120.75 37.1146C121.294 37.1146 121.742 36.9546 122.094 36.6346C122.446 36.3146 122.622 35.8826 122.622 35.3386C122.622 34.8266 122.462 34.3626 122.142 33.9466C121.822 33.5306 121.358 33.3226 120.75 33.3226ZM165.059 47.2906C163.139 47.2906 161.619 46.9866 160.499 46.3786C159.411 45.7706 158.579 45.0826 158.003 44.3146C157.459 43.5466 157.107 42.8106 156.947 42.1066C156.819 41.3706 156.755 40.8906 156.755 40.6666C156.723 40.9226 156.595 41.4186 156.371 42.1546C156.179 42.8906 155.795 43.6426 155.219 44.4106C154.643 45.1786 153.827 45.8666 152.771 46.4746C151.715 47.0506 150.339 47.3386 148.643 47.3386C147.299 47.3386 146.131 47.0506 145.139 46.4746C144.179 45.8986 143.379 45.2586 142.739 44.5546C141.971 43.7226 141.347 42.7946 140.867 41.7706C140.067 40.2346 139.443 38.7466 138.995 37.3066C138.547 35.8346 138.195 34.5066 137.939 33.3226C137.651 31.9786 137.459 30.6826 137.363 29.4346C137.203 27.4826 137.427 25.9786 138.035 24.9226C138.675 23.8666 139.411 23.0666 140.243 22.5226C141.203 21.9466 142.323 21.5786 143.603 21.4186C144.915 21.4186 146.035 21.6266 146.963 22.0426C147.891 22.4266 148.675 22.9386 149.315 23.5786C149.987 24.2186 150.515 24.9386 150.899 25.7386C151.283 26.5386 151.587 27.3226 151.811 28.0906C152.035 28.8586 152.179 29.5946 152.243 30.2986C152.307 30.9706 152.355 31.5146 152.387 31.9306C152.419 30.7146 152.659 29.7866 153.107 29.1466C153.587 28.5066 154.099 28.0426 154.643 27.7546C155.283 27.4026 156.003 27.2266 156.803 27.2266C158.083 27.2586 159.043 27.5626 159.683 28.1386C160.355 28.6826 160.835 29.3066 161.123 30.0106C161.475 30.8426 161.651 31.7546 161.651 32.7466C161.651 31.2746 161.763 29.9786 161.987 28.8586C162.211 27.7386 162.499 26.7786 162.851 25.9786C163.203 25.1466 163.603 24.4746 164.051 23.9626C164.531 23.4186 165.011 22.9706 165.491 22.6186C166.611 21.8186 167.891 21.4186 169.331 21.4186C170.227 21.4186 171.011 21.5466 171.683 21.8026C172.387 22.0266 172.979 22.3306 173.459 22.7146C173.939 23.0666 174.339 23.4826 174.659 23.9626C175.011 24.4106 175.283 24.8746 175.475 25.3546C175.923 26.5066 176.147 27.8026 176.147 29.2426C176.083 31.2586 175.875 33.0666 175.523 34.6666C175.171 36.2346 174.819 37.5626 174.467 38.6506C174.019 39.9306 173.539 41.0506 173.027 42.0106C172.259 43.4186 171.411 44.4746 170.483 45.1786C169.587 45.8826 168.723 46.3946 167.891 46.7146C166.931 47.0666 165.987 47.2586 165.059 47.2906ZM205.465 47.2906C203.545 47.2906 202.025 46.9866 200.905 46.3786C199.817 45.7706 198.985 45.0826 198.409 44.3146C197.865 43.5466 197.513 42.8106 197.353 42.1066C197.225 41.3706 197.161 40.8906 197.161 40.6666C197.129 40.9226 197.001 41.4186 196.777 42.1546C196.585 42.8906 196.201 43.6426 195.625 44.4106C195.049 45.1786 194.233 45.8666 193.177 46.4746C192.121 47.0506 190.745 47.3386 189.049 47.3386C187.705 47.3386 186.537 47.0506 185.545 46.4746C184.585 45.8986 183.785 45.2586 183.145 44.5546C182.377 43.7226 181.753 42.7946 181.273 41.7706C180.473 40.2346 179.849 38.7466 179.401 37.3066C178.953 35.8346 178.601 34.5066 178.345 33.3226C178.057 31.9786 177.865 30.6826 177.769 29.4346C177.609 27.4826 177.833 25.9786 178.441 24.9226C179.081 23.8666 179.817 23.0666 180.649 22.5226C181.609 21.9466 182.729 21.5786 184.009 21.4186C185.321 21.4186 186.441 21.6266 187.369 22.0426C188.297 22.4266 189.081 22.9386 189.721 23.5786C190.393 24.2186 190.921 24.9386 191.305 25.7386C191.689 26.5386 191.993 27.3226 192.217 28.0906C192.441 28.8586 192.585 29.5946 192.649 30.2986C192.713 30.9706 192.761 31.5146 192.793 31.9306C192.825 30.7146 193.065 29.7866 193.513 29.1466C193.993 28.5066 194.505 28.0426 195.049 27.7546C195.689 27.4026 196.409 27.2266 197.209 27.2266C198.489 27.2586 199.449 27.5626 200.089 28.1386C200.761 28.6826 201.241 29.3066 201.529 30.0106C201.881 30.8426 202.057 31.7546 202.057 32.7466C202.057 31.2746 202.169 29.9786 202.393 28.8586C202.617 27.7386 202.905 26.7786 203.257 25.9786C203.609 25.1466 204.009 24.4746 204.457 23.9626C204.937 23.4186 205.417 22.9706 205.897 22.6186C207.017 21.8186 208.297 21.4186 209.737 21.4186C210.633 21.4186 211.417 21.5466 212.089 21.8026C212.793 22.0266 213.385 22.3306 213.865 22.7146C214.345 23.0666 214.745 23.4826 215.065 23.9626C215.417 24.4106 215.689 24.8746 215.881 25.3546C216.329 26.5066 216.553 27.8026 216.553 29.2426C216.489 31.2586 216.281 33.0666 215.929 34.6666C215.577 36.2346 215.225 37.5626 214.873 38.6506C214.425 39.9306 213.945 41.0506 213.433 42.0106C212.665 43.4186 211.817 44.4746 210.889 45.1786C209.993 45.8826 209.129 46.3946 208.297 46.7146C207.337 47.0666 206.393 47.2586 205.465 47.2906ZM245.871 47.2906C243.951 47.2906 242.431 46.9866 241.311 46.3786C240.223 45.7706 239.391 45.0826 238.815 44.3146C238.271 43.5466 237.919 42.8106 237.759 42.1066C237.631 41.3706 237.567 40.8906 237.567 40.6666C237.535 40.9226 237.407 41.4186 237.183 42.1546C236.991 42.8906 236.607 43.6426 236.031 44.4106C235.455 45.1786 234.639 45.8666 233.583 46.4746C232.527 47.0506 231.151 47.3386 229.455 47.3386C228.111 47.3386 226.943 47.0506 225.951 46.4746C224.991 45.8986 224.191 45.2586 223.551 44.5546C222.783 43.7226 222.159 42.7946 221.679 41.7706C220.879 40.2346 220.255 38.7466 219.807 37.3066C219.359 35.8346 219.007 34.5066 218.751 33.3226C218.463 31.9786 218.271 30.6826 218.175 29.4346C218.015 27.4826 218.239 25.9786 218.847 24.9226C219.487 23.8666 220.223 23.0666 221.055 22.5226C222.015 21.9466 223.135 21.5786 224.415 21.4186C225.727 21.4186 226.847 21.6266 227.775 22.0426C228.703 22.4266 229.487 22.9386 230.127 23.5786C230.799 24.2186 231.327 24.9386 231.711 25.7386C232.095 26.5386 232.399 27.3226 232.623 28.0906C232.847 28.8586 232.991 29.5946 233.055 30.2986C233.119 30.9706 233.167 31.5146 233.199 31.9306C233.231 30.7146 233.471 29.7866 233.919 29.1466C234.399 28.5066 234.911 28.0426 235.455 27.7546C236.095 27.4026 236.815 27.2266 237.615 27.2266C238.895 27.2586 239.855 27.5626 240.495 28.1386C241.167 28.6826 241.647 29.3066 241.935 30.0106C242.287 30.8426 242.463 31.7546 242.463 32.7466C242.463 31.2746 242.575 29.9786 242.799 28.8586C243.023 27.7386 243.311 26.7786 243.663 25.9786C244.015 25.1466 244.415 24.4746 244.863 23.9626C245.343 23.4186 245.823 22.9706 246.303 22.6186C247.423 21.8186 248.703 21.4186 250.143 21.4186C251.039 21.4186 251.823 21.5466 252.495 21.8026C253.199 22.0266 253.791 22.3306 254.271 22.7146C254.751 23.0666 255.151 23.4826 255.471 23.9626C255.823 24.4106 256.095 24.8746 256.287 25.3546C256.735 26.5066 256.959 27.8026 256.959 29.2426C256.895 31.2586 256.687 33.0666 256.335 34.6666C255.983 36.2346 255.631 37.5626 255.279 38.6506C254.831 39.9306 254.351 41.0506 253.839 42.0106C253.071 43.4186 252.223 44.4746 251.295 45.1786C250.399 45.8826 249.535 46.3946 248.703 46.7146C247.743 47.0666 246.799 47.2586 245.871 47.2906ZM272.214 41.0986C272.214 41.9306 272.086 42.7146 271.83 43.4506C271.574 44.1866 271.19 44.8266 270.678 45.3706C270.166 45.9146 269.526 46.3466 268.758 46.6666C268.022 46.9866 267.158 47.1466 266.166 47.1466C265.206 47.1466 264.342 46.9866 263.574 46.6666C262.838 46.3466 262.214 45.9146 261.702 45.3706C261.19 44.8266 260.79 44.1866 260.502 43.4506C260.246 42.7146 260.118 41.9306 260.118 41.0986C260.118 40.2666 260.246 39.4826 260.502 38.7466C260.79 38.0106 261.19 37.3706 261.702 36.8266C262.214 36.2826 262.838 35.8506 263.574 35.5306C264.342 35.2106 265.206 35.0506 266.166 35.0506C267.158 35.0506 268.022 35.2106 268.758 35.5306C269.526 35.8506 270.166 36.2826 270.678 36.8266C271.19 37.3706 271.574 38.0106 271.83 38.7466C272.086 39.4826 272.214 40.2666 272.214 41.0986ZM293.073 32.9866C292.433 32.7946 291.873 32.7146 291.393 32.7466C290.945 32.7786 290.545 32.9066 290.193 33.1306C289.873 33.3546 289.713 33.7706 289.713 34.3786C289.745 34.8266 289.889 35.1786 290.145 35.4346C290.369 35.6586 290.705 35.8186 291.153 35.9146C291.601 35.9786 292.257 35.8346 293.121 35.4826C294.049 35.1306 294.961 34.9546 295.857 34.9546C296.625 34.9866 297.441 35.1946 298.305 35.5786C299.169 35.9626 299.953 36.7146 300.657 37.8346C301.041 38.6666 301.233 39.4986 301.233 40.3306C301.233 41.0666 301.041 41.8826 300.657 42.7786C300.273 43.6746 299.473 44.5546 298.257 45.4186C296.977 46.2826 295.537 46.9066 293.937 47.2906C292.561 47.6426 290.913 47.7706 288.993 47.6746C287.073 47.6106 284.945 47.0506 282.609 45.9946C281.457 45.4186 280.433 44.6026 279.537 43.5466C278.769 42.6506 278.065 41.4666 277.425 39.9946C276.785 38.4906 276.465 36.6346 276.465 34.4266C276.497 32.5706 276.817 30.8266 277.425 29.1946C277.681 28.4906 278.017 27.7866 278.433 27.0826C278.849 26.3786 279.361 25.7066 279.969 25.0666C280.577 24.3946 281.297 23.8026 282.129 23.2906C282.993 22.7466 283.985 22.2986 285.105 21.9466C286.673 21.4986 288.273 21.2586 289.905 21.2266C291.281 21.1946 292.769 21.3866 294.369 21.8026C296.001 22.2186 297.521 23.0666 298.929 24.3466C299.345 24.7626 299.681 25.2586 299.937 25.8346C300.161 26.3466 300.305 26.9706 300.369 27.7066C300.465 28.4426 300.337 29.2746 299.985 30.2026C299.665 30.9066 299.201 31.4986 298.593 31.9786C298.049 32.3946 297.329 32.7306 296.433 32.9866C295.569 33.2426 294.449 33.2426 293.073 32.9866ZM303.888 36.9706C303.664 35.1466 303.552 33.2426 303.552 31.2586C303.552 29.2426 303.6 27.3706 303.696 25.6426C303.792 23.6586 303.936 21.7066 304.128 19.7866C304.32 18.0266 304.704 16.4426 305.28 15.0346C305.536 14.4586 305.84 13.8826 306.192 13.3066C306.576 12.7306 307.024 12.2186 307.536 11.7706C308.048 11.3226 308.64 10.9706 309.312 10.7146C310.016 10.4266 310.8 10.2826 311.664 10.2826C312.88 10.3146 314.016 10.6986 315.072 11.4346C315.488 11.7546 315.92 12.1546 316.368 12.6346C316.816 13.1146 317.216 13.7226 317.568 14.4586C317.952 15.1946 318.272 16.0586 318.528 17.0506C318.816 18.0426 319.008 19.1946 319.104 20.5066C319.296 23.0666 319.392 25.5146 319.392 27.8506C319.392 30.1866 319.36 32.2666 319.296 34.0906C319.2 36.2346 319.056 38.2346 318.864 40.0906C318.704 41.4986 318.336 42.7306 317.76 43.7866C317.504 44.2346 317.184 44.6826 316.8 45.1306C316.448 45.5786 316 45.9786 315.456 46.3306C314.944 46.6506 314.336 46.9066 313.632 47.0986C312.928 47.2906 312.128 47.3706 311.232 47.3386C310.4 47.3066 309.648 47.1306 308.976 46.8106C308.336 46.5226 307.76 46.1386 307.248 45.6586C306.736 45.1786 306.304 44.6346 305.952 44.0266C305.6 43.3866 305.296 42.7466 305.04 42.1066C304.464 40.6026 304.08 38.8906 303.888 36.9706ZM330.746 21.9946C331.674 22.1226 332.506 22.4266 333.242 22.9066C333.882 23.3226 334.458 23.9466 334.97 24.7786C335.514 25.6106 335.818 26.7626 335.882 28.2346C335.882 28.7786 335.882 29.3866 335.882 30.0586C335.914 30.7306 335.962 31.3546 336.026 31.9306C336.122 32.5066 336.266 33.0026 336.458 33.4186C336.682 33.8026 337.002 33.9946 337.418 33.9946C338.154 33.9946 338.57 33.5466 338.666 32.6506C338.794 31.7226 338.874 30.2506 338.906 28.2346C338.906 26.6666 339.194 25.4506 339.77 24.5866C340.346 23.7226 340.97 23.0986 341.642 22.7146C342.442 22.2666 343.354 22.0106 344.378 21.9466C345.978 21.8826 347.226 22.1226 348.122 22.6666C349.05 23.1786 349.77 23.7706 350.282 24.4426C350.858 25.2426 351.258 26.1546 351.482 27.1786C351.834 28.8746 351.946 30.4906 351.818 32.0266C351.722 33.5626 351.546 34.9386 351.29 36.1546C350.97 37.5626 350.554 38.8906 350.042 40.1386C349.434 41.5466 348.586 42.7946 347.498 43.8826C347.018 44.3626 346.474 44.8266 345.866 45.2746C345.258 45.7226 344.554 46.1226 343.754 46.4746C342.954 46.7946 342.074 47.0506 341.114 47.2426C340.154 47.4346 339.082 47.5146 337.898 47.4826C335.402 47.4186 333.338 47.1306 331.706 46.6186C330.106 46.0746 328.826 45.4986 327.866 44.8906C326.746 44.1866 325.898 43.3866 325.322 42.4906C324.33 41.0506 323.674 39.4506 323.354 37.6906C323.034 35.9306 322.89 34.2826 322.922 32.7466C322.922 30.9546 323.098 29.1466 323.45 27.3226C323.802 25.7546 324.378 24.5866 325.178 23.8186C325.978 23.0506 326.794 22.5386 327.626 22.2826C328.586 21.9626 329.626 21.8666 330.746 21.9946ZM363.707 9.94662C364.731 10.0426 365.595 10.3146 366.299 10.7626C367.003 11.1786 367.579 11.7226 368.027 12.3946C368.475 13.0346 368.811 13.7546 369.035 14.5546C369.259 15.3546 369.403 16.1546 369.467 16.9546C369.627 18.8746 369.483 21.0186 369.035 23.3866C370.507 22.7786 372.011 22.4586 373.547 22.4266C374.187 22.4266 374.875 22.4746 375.611 22.5706C376.347 22.6666 377.083 22.8746 377.819 23.1946C378.587 23.4826 379.339 23.8826 380.075 24.3946C380.843 24.9066 381.595 25.5626 382.331 26.3626C383.003 27.1306 383.531 28.0906 383.915 29.2426C384.331 30.3626 384.587 31.5306 384.683 32.7466C384.779 33.9626 384.731 35.1946 384.539 36.4426C384.379 37.6586 384.075 38.7466 383.627 39.7066C383.083 40.8906 382.475 41.8666 381.803 42.6346C381.131 43.4026 380.491 44.0106 379.883 44.4586C379.179 45.0026 378.475 45.4186 377.771 45.7066C375.947 46.5386 374.075 47.0186 372.155 47.1466C370.267 47.2746 368.459 47.1306 366.731 46.7146C365.035 46.2986 363.483 45.6746 362.075 44.8426C360.667 43.9786 359.531 42.9866 358.667 41.8666C357.931 40.9386 357.339 39.8826 356.891 38.6986C356.443 37.5146 356.091 36.2666 355.835 34.9546C355.579 33.6426 355.403 32.3146 355.307 30.9706C355.243 29.5946 355.211 28.2666 355.211 26.9866C355.243 24.0106 355.515 20.9066 356.027 17.6746C356.283 16.1386 356.731 14.7786 357.371 13.5946C357.659 13.0826 357.995 12.6026 358.379 12.1546C358.763 11.6746 359.211 11.2586 359.723 10.9066C360.235 10.5546 360.811 10.2986 361.451 10.1386C362.123 9.94662 362.875 9.88262 363.707 9.94662ZM370.235 32.7946C369.691 32.7946 369.211 33.0026 368.795 33.4186C368.411 33.8346 368.251 34.2986 368.315 34.8106C368.379 35.4826 368.571 35.9466 368.891 36.2026C369.243 36.4586 369.691 36.5866 370.235 36.5866C370.779 36.5866 371.227 36.4266 371.579 36.1066C371.931 35.7866 372.107 35.3546 372.107 34.8106C372.107 34.2986 371.947 33.8346 371.627 33.4186C371.307 33.0026 370.843 32.7946 370.235 32.7946Z" fill="#202020"/>
</svg>
