<?xml version="1.0" encoding="utf-8"?>
<svg viewBox="0 0 200 200" xmlns="http://www.w3.org/2000/svg">
  <g id="layer1" transform="matrix(1.2280910015106201, 0, 0, 1.1907910108566284, -22.711835861206055, -1045.981201171875)" style="">
    <g id="g8827" transform="translate(-1186.3)">
      <path id="path4048" d="m1230.4 943.73c-6.0585 13.585-8.0349 33.445-4.9197 47.752 9.6152 7.7602 21.866 12.574 33.076 13.29 2.5673 4.015 8.6462 8.0319 13.217 8.8762 4.9963 0.9229 9.1885 1.2731 13.46 1.1641 4.2715 0.109 8.4636-0.2412 13.46-1.1641 4.571-0.8443 10.65-4.8612 13.217-8.8762 11.21-0.7155 23.208-4.9749 34.764-13.29 1.7297-18.429 0.2095-33.785-6.6069-47.728-6.1-12.478-15.708-21.979-26.047-30.485-8.3328-4.8149-17.883-7.6879-28.035-7.6879-0.5043-0.0143-0.9962 0-1.5037 0-10.151 0-19.679 2.8743-28.011 7.6879-12.802 6.4528-20.3 17.52-26.071 30.46z" style="stroke-width: 6.9846; fill: rgb(249, 246, 238); stroke: rgb(254, 98, 29); fill-opacity: 0;"/>
      <path id="path4272" d="m1234.4 922.88c6.2276-6.3497 23.348-16.255 19.066-2.1304-14.312 47.2-1.6962 76.824-19.449 81.264-16.58 4.1465-25.567-11.077-24.925-20.609 1.1207-16.642 12.642-45.609 25.309-58.525z" style="stroke-width: 6.9846; fill: rgb(254, 98, 29); stroke: rgb(254, 98, 29); paint-order: fill;"/>
      <path id="path4274" style="stroke-width: 6.9846; stroke: rgb(254, 98, 29); fill: rgb(254, 98, 29);" d="M 1338.2 922.88 C 1333.819 918.221 1314.852 906.625 1319.135 920.75 C 1333.447 967.95 1320.831 997.574 1338.584 1002.014 C 1355.164 1006.16 1364.151 990.937 1363.509 981.405 C 1362.388 964.763 1349.679 935.087 1338.2 922.88 Z"/>
      <path id="path4276" d="m1276.4 983.77c1.1352-4.2455 16.9-4.6528 18.52 0 1.3877 3.9848-5.0303 9.1265-9.2603 9.1382-3.8537 0.0101-10.401-4.8701-9.2601-9.1382z" style="fill: rgb(254, 98, 29);"/>
      <path id="path4278" style="fill: rgb(254, 98, 29);" d="m1082.3 522.36c0 3.5504-2.8782 6.4286-6.4286 6.4286s-6.4285-2.8782-6.4285-6.4286 2.8781-6.4286 6.4285-6.4286 6.4286 2.8782 6.4286 6.4286z" transform="matrix(.78403 0 0 .78403 420.18 558.08)"/>
      <path id="path4280" style="fill: rgb(254, 98, 29);" d="m1082.3 522.36c0 3.5504-2.8782 6.4286-6.4286 6.4286s-6.4285-2.8782-6.4285-6.4286 2.8781-6.4286 6.4285-6.4286 6.4286 2.8782 6.4286 6.4286z" transform="matrix(.78403 0 0 .78403 464.12 558.08)"/>
    </g>
  </g>
</svg>