<svg width="61" height="80" viewBox="0 0 61 61" fill="none" xmlns="http://www.w3.org/2000/svg">
<path d="M47.9785 23.0299C48.079 25.7941 47.8277 28.2064 47.2246 30.2669C46.6215 32.2772 45.7923 34.0111 44.7369 35.4685C43.6815 36.8757 42.4502 38.0316 41.043 38.9362C39.6861 39.8408 38.2789 40.5444 36.8215 41.047C33.404 42.3034 29.5091 42.7809 25.1368 42.4793C25.5388 44.3388 25.7398 45.9722 25.7398 47.3794C25.7398 48.7865 25.5891 50.0178 25.2875 51.0732C24.986 52.1286 24.5839 53.0332 24.0814 53.7871C23.5788 54.4907 23.026 55.0938 22.4229 55.5963C21.0157 56.7522 19.2818 57.4558 17.2213 57.7071C14.2562 58.0087 11.7936 57.6317 9.83357 56.5763C7.87356 55.521 6.3156 54.2897 5.15969 52.8825C3.80276 51.224 2.74737 49.3142 1.99352 47.1532C0.837613 43.2332 0.184275 39.489 0.0335045 35.9208C-0.067009 32.3526 0.0586329 29.1864 0.41043 26.4223C0.812484 23.2561 1.44069 20.2658 2.29506 17.4514C2.9484 15.4914 3.77763 13.8078 4.78277 12.4006C5.83816 10.9432 6.94381 9.71191 8.09972 8.70677C9.30588 7.65138 10.5623 6.82214 11.869 6.21906C13.1756 5.56572 14.4572 5.03803 15.7136 4.63597C18.6788 3.73135 21.8198 3.37956 25.1368 3.58058C27.9511 3.68109 30.4137 4.03289 32.5245 4.63597C34.6855 5.23905 36.545 6.01803 38.103 6.97291C39.7112 7.87753 41.0682 8.9078 42.1738 10.0637C43.2795 11.2196 44.2092 12.4006 44.9631 13.6068C46.6215 16.3709 47.6267 19.512 47.9785 23.0299ZM24.986 21.5222C24.1316 21.5222 23.3778 21.8489 22.7244 22.5023C22.1214 23.1556 21.8701 23.8843 21.9706 24.6884C22.0711 25.7438 22.3726 26.4725 22.8752 26.8746C23.428 27.2766 24.1316 27.4777 24.986 27.4777C25.8404 27.4777 26.544 27.2264 27.0968 26.7238C27.6496 26.2213 27.926 25.5428 27.926 24.6884C27.926 23.8843 27.6747 23.1556 27.1722 22.5023C26.6696 21.8489 25.9409 21.5222 24.986 21.5222Z" fill="#FE621D"/>
</svg>
